<svg width="24" height="24" viewBox="0 0 24 24" fill="none" xmlns="http://www.w3.org/2000/svg">
<g id="Icon">
<path id="Path 3028" d="M9.15776 21.9917H9.16392L9.167 21.9978C9.54842 21.9978 9.91421 21.8463 10.1839 21.5766C10.4536 21.3069 10.6051 20.9411 10.6051 20.5597V13.7985L12.407 16.0401C12.4804 16.112 12.5675 16.1686 12.6631 16.2063C12.7588 16.2441 12.861 16.2623 12.9638 16.2599C13.0663 16.2561 13.1669 16.2311 13.2592 16.1863C13.3515 16.1416 13.4335 16.0781 13.5 16L15.012 13.9525V20.5412C15.0132 20.7326 15.0522 20.9219 15.1268 21.0982C15.2013 21.2744 15.31 21.4343 15.4465 21.5684C15.5815 21.7018 15.7421 21.8064 15.9187 21.8759C16.0952 21.9455 16.284 21.9786 16.4737 21.9732C18.0328 21.9679 19.586 21.7824 21.1024 21.4205C21.4179 21.3347 21.6964 21.1473 21.8947 20.8874C22.093 20.6274 22.2001 20.3094 22.1995 19.9824V3.95243C22.2001 3.51934 22.0433 3.10078 21.7584 2.77463C21.4734 2.44849 21.0797 2.23696 20.6504 2.17943C19.2617 2.04032 17.8661 1.98201 16.4706 2.0048C16.1058 2.00609 15.7466 2.09494 15.4233 2.26385C15.0999 2.43277 14.8218 2.67684 14.6124 2.97555L12.975 5.31146L10.9945 2.86255C10.7783 2.59822 10.506 2.38524 10.1975 2.23903C9.88886 2.09281 9.55163 2.01701 9.21016 2.01712C7.65122 2.00373 6.09305 2.09159 4.54549 2.28011C4.21037 2.33042 3.89712 2.47716 3.64395 2.70242C3.39078 2.92768 3.20863 3.22174 3.1197 3.54874C2.61294 5.13395 2.23842 6.75842 2 8.40549C2.01104 8.75138 2.14752 9.08145 2.38396 9.33415C2.6204 9.58685 2.94068 9.74491 3.28507 9.77889V20.0985C3.28226 20.414 3.38042 20.7222 3.56524 20.978C3.75005 21.2338 4.01183 21.4238 4.31231 21.5202C5.9011 21.8811 7.52918 22.0395 9.15776 21.9917Z" stroke="#FA2256" stroke-width="2" stroke-linejoin="round"/>
</g>
</svg>
